<svg xmlns="http://www.w3.org/2000/svg" width="15.8" height="15.8" viewBox="0 0 15.8 15.8">
    <path id="Icon_awesome-info-circle" data-name="Icon awesome-info-circle" d="M8.462.563a7.9,7.9,0,1,0,7.9,7.9A7.9,7.9,0,0,0,8.462.563Zm0,3.5A1.338,1.338,0,1,1,7.125,5.4,1.338,1.338,0,0,1,8.462,4.067Zm1.784,8.091a.382.382,0,0,1-.382.382h-2.8a.382.382,0,0,1-.382-.382v-.765a.382.382,0,0,1,.382-.382h.382V8.972H7.061a.382.382,0,0,1-.382-.382V7.825a.382.382,0,0,1,.382-.382H9.1a.382.382,0,0,1,.382.382v3.185h.382a.382.382,0,0,1,.382.382Z" transform="translate(-0.563 -0.563)" fill="#ffa800"/>
</svg>
