<svg xmlns="http://www.w3.org/2000/svg" width="14.271" height="14.271" viewBox="0 0 14.271 14.271">
    <path id="Icon_awesome-phone-square-alt" data-name="Icon awesome-phone-square-alt" d="M12.742,2.25H1.529A1.529,1.529,0,0,0,0,3.779V14.992a1.529,1.529,0,0,0,1.529,1.529H12.742a1.529,1.529,0,0,0,1.529-1.529V3.779A1.529,1.529,0,0,0,12.742,2.25Zm-.522,9.791-.478,2.071a.478.478,0,0,1-.465.37A9.239,9.239,0,0,1,2.039,5.244a.5.5,0,0,1,.37-.465L4.48,4.3a.581.581,0,0,1,.107-.012.518.518,0,0,1,.439.29l.956,2.23A.57.57,0,0,1,6.021,7a.542.542,0,0,1-.175.37l-1.207.987a7.387,7.387,0,0,0,3.529,3.529l.987-1.207a.542.542,0,0,1,.37-.175.569.569,0,0,1,.188.039l2.23.956a.518.518,0,0,1,.29.439.555.555,0,0,1-.012.107Z" transform="translate(0 -2.25)" fill="#ffa800"/>
</svg>
