<svg xmlns="http://www.w3.org/2000/svg" xmlns:xlink="http://www.w3.org/1999/xlink" width="75.855" height="69.33" viewBox="0 0 75.855 69.33">
    <defs>
        <clipPath id="clip-path">
            <path id="Path_244" data-name="Path 244" d="M210.9,123a1.151,1.151,0,1,1-1.627,0A1.151,1.151,0,0,1,210.9,123Z" transform="translate(-208.932 -122.666)" fill="none"/>
        </clipPath>
        <clipPath id="clip-path-2">
            <circle id="Ellipse_400" data-name="Ellipse 400" cx="1.151" cy="1.151" r="1.151" fill="none"/>
        </clipPath>
    </defs>
    <g id="Group_9064" data-name="Group 9064" transform="translate(0 0)">
        <path id="Path_72" data-name="Path 72" d="M352.8,138.97c0,4.061-16.982,7.356-37.927,7.356s-37.928-3.295-37.928-7.356,16.982-7.359,37.928-7.359S352.8,134.9,352.8,138.97Z" transform="translate(-276.941 -76.996)" fill="#c8e3f7"/>
        <g id="Group_9006" data-name="Group 9006" transform="translate(17.462 0)">
            <g id="Layer_13" data-name="Layer 13" transform="translate(0.017 16.823)">
                <path id="Path_179" data-name="Path 179" d="M194.366,165.03a9.922,9.922,0,0,0,7.964-.726c4.163-2.432,1.73,23.174,1.73,23.174l-.338,13.29-.473,6.418H192.88l-2.128-20.2S192.919,167.322,194.366,165.03Z" transform="translate(-177.486 -161.924)" fill="#5dcec1"/>
                <path id="Path_180" data-name="Path 180" d="M250.084,169.617c-1.694-1.456-9.492-4.414-9.492-4.414l-1.273,2.274s.413,28.2.2,34.015l0,6.5h9.516l.048-14.687a12.427,12.427,0,0,0,6.029-3.13A5.053,5.053,0,0,0,256.747,186C256.747,184.078,251.777,171.073,250.084,169.617Z" transform="translate(-214.475 -162.733)" fill="#fff"/>
                <path id="Path_181" data-name="Path 181" d="M151.129,191.464l.139-.225V166.266s-7.8,2.958-9.492,4.414-6.62,14.924-6.667,16.843c-.186,7.617,6.439,17.227,6.439,17.227a3.819,3.819,0,0,0,.619-.373c-.129,1.774-.349,4.426-.349,4.426h10.337s.034-7.893,0-8.253C152.135,200.336,151.578,195.42,151.129,191.464Z" transform="translate(-135.106 -163.543)" fill="#fff"/>
                <g id="Group_8905" data-name="Group 8905" transform="translate(28.83 17.021)">
                    <g id="Group_8904" data-name="Group 8904">
                        <path id="Path_182" data-name="Path 182" d="M259.821,230.345l-1.742,1.033a.13.13,0,0,1-.13,0l-1.841-1.035a.13.13,0,0,1-.066-.113v-3.859a.13.13,0,0,1,.13-.13h3.583a.13.13,0,0,1,.13.13v3.862A.131.131,0,0,1,259.821,230.345Z" transform="translate(-256.042 -226.242)" fill="#d5e1ed"/>
                    </g>
                </g>
                <g id="Group_8907" data-name="Group 8907" transform="translate(28.83 17.801)">
                    <g id="Group_8906" data-name="Group 8906">
                        <path id="Path_183" data-name="Path 183" d="M259.821,232.836l-1.742,1.033a.13.13,0,0,1-.13,0l-1.841-1.035a.13.13,0,0,1-.066-.113v-3.079a.13.13,0,0,1,.13-.13h3.583a.13.13,0,0,1,.13.13v3.081A.131.131,0,0,1,259.821,232.836Z" transform="translate(-256.042 -229.513)" fill="#b8ddff"/>
                    </g>
                </g>
                <g id="Group_8909" data-name="Group 8909" transform="translate(25.044 0.299)" opacity="0.5">
                    <g id="Group_8908" data-name="Group 8908">
                        <path id="Path_184" data-name="Path 184" d="M240.158,194.811V156.1a9.856,9.856,0,0,0,1.526,1.816,21,21,0,0,1,2.782,3.811l-2.705-.524,3.514,3.536-2.644,15.54-1.871.279,1.184,3.761Z" transform="translate(-240.158 -156.098)" fill="#8fa7d7"/>
                    </g>
                </g>
                <g id="Group_8910" data-name="Group 8910" transform="translate(11.38 0.276)" opacity="0.5">
                    <path id="Path_185" data-name="Path 185" d="M186.435,157.816a21,21,0,0,0-2.782,3.811l2.705-.523-3.514,3.536,5.669,29.309L187.96,156A9.845,9.845,0,0,1,186.435,157.816Z" transform="translate(-182.844 -156)" fill="#8fa7d7"/>
                </g>
                <g id="Group_8912" data-name="Group 8912" transform="translate(24.456)">
                    <g id="Group_8911" data-name="Group 8911">
                        <path id="Path_186" data-name="Path 186" d="M238.28,192.233h0l-.588-37.39a7.036,7.036,0,0,1,1.806,1.475,14.171,14.171,0,0,1,2.5,4.151l-2.705-.523,3.514,3.536-2.518,15.99-1.29.3.945,1.9Z" transform="translate(-237.692 -154.843)" fill="#fff"/>
                    </g>
                </g>
                <g id="Group_8914" data-name="Group 8914" transform="translate(11.933)">
                    <g id="Group_8913" data-name="Group 8913">
                        <path id="Path_187" data-name="Path 187" d="M190.278,191.851V154.843a7.036,7.036,0,0,0-1.806,1.475,14.172,14.172,0,0,0-2.5,4.151l2.705-.523-3.514,3.536Z" transform="translate(-185.162 -154.843)" fill="#fff"/>
                    </g>
                </g>
                <path id="Path_188" data-name="Path 188" d="M210.877,320.873a23.893,23.893,0,0,1-4.191-.36V320.3a22.442,22.442,0,0,0,7.979-.01v.218A17.96,17.96,0,0,1,210.877,320.873Z" transform="translate(-189.622 -280.845)" fill="#38a595"/>
                <g id="Group_8915" data-name="Group 8915" transform="translate(17.049 5.352)">
                    <path id="Path_189" data-name="Path 189" d="M210.308,178.475a9.118,9.118,0,0,1-3.685-.757v-.262a8.919,8.919,0,0,0,7.491-.163l0,.254A7.863,7.863,0,0,1,210.308,178.475Z" transform="translate(-206.623 -177.294)" fill="#38a595"/>
                </g>
                <path id="Path_190" data-name="Path 190" d="M149.52,255.483a9.713,9.713,0,0,1,4.279,2S150.151,255.663,149.52,255.483Z" transform="translate(-146.084 -231.491)" fill="#8fa7d7" opacity="0.5"/>
                <path id="Path_191" data-name="Path 191" d="M171.288,308.109l.59.716a20.181,20.181,0,0,1-2.506,4.44l-1.069-1.487A12.664,12.664,0,0,0,171.288,308.109Z" transform="translate(-160.389 -271.571)" fill="#ffcca9"/>
                <path id="Path_192" data-name="Path 192" d="M163,255.483a7.077,7.077,0,0,1,1.329,1.891l-1.486-1.689Z" transform="translate(-156.228 -231.491)" fill="#8fa7d7" opacity="0.5"/>
                <path id="Path_193" data-name="Path 193" d="M167.429,214.483c-.007-.135-.865,11.2-1.232,12.681l2.848,8.711a13.531,13.531,0,0,1-4.319,5.223s1.8-.269,4.639-4.187c0,0-1.419,4.053-3.423,5.765,0,0,3.153-1.869,4.076-7.544l-2.972-7.968S167.565,217.005,167.429,214.483Z" transform="translate(-157.666 -200.264)" fill="#8fa7d7" opacity="0.5"/>
                <path id="Path_194" data-name="Path 194" d="M275.885,283.091l-1.371.4.209,1.229,1.162-.449Z" transform="translate(-241.28 -252.518)" fill="#8fa7d7" opacity="0.5"/>
                <path id="Path_195" data-name="Path 195" d="M253.38,220.14h0l-1.042-8.537.323,8.808c-3.5,1.328-7.265,2.914-7.265,2.914s2-.516,4.459-1.171a43.817,43.817,0,0,0,7.025-3.22C255.95,219.207,254.705,219.645,253.38,220.14Z" transform="translate(-219.104 -198.071)" fill="#8fa7d7" opacity="0.5"/>
            </g>
            <g id="Layer_26" data-name="Layer 26" transform="translate(0 28.387)">
                <path id="Path_196" data-name="Path 196" d="M260.3,212.5s2.2,5.925,2.225,9.773a3.984,3.984,0,0,1-1.4,3.04,25.2,25.2,0,0,1-12.8,4.315,4.232,4.232,0,0,1-.193,1.134s12.511-.828,14.9-6.247a3.8,3.8,0,0,0,.42-2.22C263.226,219.743,261.805,216.152,260.3,212.5Z" transform="translate(-221.173 -210.322)" fill="#8fa7d7" opacity="0.1"/>
                <path id="Path_197" data-name="Path 197" d="M139.317,203.356c.087-.227-3.565,9.075-3.533,12.424.067,7.029,5.258,15.9,6.327,16.843l-.619.373s-6.891-10.235-6.439-17.227C135.143,214.386,135.311,213.775,139.317,203.356Z" transform="translate(-135.033 -203.352)" fill="#8fa7d7" opacity="0.1"/>
            </g>
            <g id="Layer_21" data-name="Layer 21" transform="translate(19.819 32.39)">
                <path id="Path_198" data-name="Path 198" d="M225.346,236.818a18.855,18.855,0,0,0-.642-6.722c1.338-.6,4.663-1.91,7.341-2.948l.114-6.07-13.681-.554-.311,20.208,13.632-.555.083-4.41A51.386,51.386,0,0,1,225.346,236.818Z" transform="translate(-218.168 -220.434)" fill="#ae376d"/>
                <path id="Path_199" data-name="Path 199" d="M245.713,220.6l.007-.246-3.711-.212-.006.308Z" transform="translate(-236.32 -220.145)" fill="#a1b5bf"/>
                <path id="Path_200" data-name="Path 200" d="M243.521,222.9a.077.077,0,1,1-.077-.077A.077.077,0,0,1,243.521,222.9Z" transform="translate(-237.359 -222.185)" fill="#a1b5bf"/>
                <path id="Path_201" data-name="Path 201" d="M256.047,223.519a.047.047,0,1,1-.047-.047A.047.047,0,0,1,256.047,223.519Z" transform="translate(-246.945 -222.679)" fill="#a1b5bf"/>
            </g>
            <g id="Layer_6" data-name="Layer 6" transform="translate(14.485 2.445)">
                <g id="Group_8917" data-name="Group 8917" transform="translate(10.889 6.81)">
                    <g id="Group_8916" data-name="Group 8916">
                        <path id="Path_202" data-name="Path 202" d="M242.849,125.794c-.39,1.4-1.078,2.481-1.377,2.4,0,0,.21-.894.491-2.325.325-1.66.372-2.83,1.051-2.767C243.322,123.129,243.239,124.389,242.849,125.794Z" transform="translate(-241.472 -123.098)" fill="#f0ba92"/>
                    </g>
                </g>
                <g id="Group_8919" data-name="Group 8919" transform="translate(10.889 7.023)" opacity="0.6">
                    <g id="Group_8918" data-name="Group 8918">
                        <path id="Path_203" data-name="Path 203" d="M242.327,125.893c-.354,1.414-.556,3.062-.855,2.979,0,0,.3-1.276.578-2.706.326-1.659.292-2.233.971-2.17C243.022,124,242.758,124.175,242.327,125.893Z" transform="translate(-241.472 -123.992)" fill="#d88d64"/>
                    </g>
                </g>
                <g id="Group_8921" data-name="Group 8921" transform="translate(0 6.81)">
                    <g id="Group_8920" data-name="Group 8920">
                        <path id="Path_204" data-name="Path 204" d="M196.147,125.794c.39,1.4,1.037,2.49,1.335,2.407,0,0-.318-1.159-.507-2.377-.259-1.671-.314-2.787-.993-2.724C195.674,123.129,195.758,124.389,196.147,125.794Z" transform="translate(-195.795 -123.097)" fill="#f0ba92"/>
                    </g>
                </g>
                <g id="Group_8923" data-name="Group 8923" transform="translate(0.138 7.032)" opacity="0.6">
                    <g id="Group_8922" data-name="Group 8922">
                        <path id="Path_205" data-name="Path 205" d="M196.9,125.769c.354,1.414.724,3.225,1.023,3.143,0,0-.318-1.456-.6-2.886-.326-1.659-.272-2.053-.952-1.99C196.373,124.035,196.469,124.051,196.9,125.769Z" transform="translate(-196.373 -124.029)" fill="#d88d64"/>
                    </g>
                </g>
                <g id="Group_8925" data-name="Group 8925" transform="translate(2.58 13.63)">
                    <g id="Group_8924" data-name="Group 8924">
                        <path id="Path_206" data-name="Path 206" d="M214.076,155.746s-.514,1.356-3.756,1.356-3.7-1.275-3.7-1.275v-4.121h7.408Z" transform="translate(-206.616 -151.707)" fill="#f0ba92"/>
                    </g>
                </g>
                <g id="Group_8927" data-name="Group 8927" transform="translate(2.58 12.55)" opacity="0.6">
                    <g id="Group_8926" data-name="Group 8926">
                        <path id="Path_207" data-name="Path 207" d="M214.029,149.3c-.669,1.4-3.286,2.5-3.709,2.5a6.424,6.424,0,0,1-3.7-2.472v-2.15h7.408Z" transform="translate(-206.616 -147.176)" fill="#d88d64"/>
                    </g>
                </g>
                <g id="Group_8929" data-name="Group 8929" transform="translate(0.33 0)">
                    <g id="Group_8928" data-name="Group 8928">
                        <path id="Path_208" data-name="Path 208" d="M207.74,106.437c-1.234,4.057-4.605,4.125-4.605,4.125s-3.561-.01-4.624-4.222c-.7-2.779-2.391-7.036-.366-10.19,1.146-1.785,9.479-2.5,10.461,0S208.464,104.058,207.74,106.437Z" transform="translate(-197.181 -94.533)" fill="#ffcca9"/>
                    </g>
                </g>
                <g id="Group_8930" data-name="Group 8930" transform="translate(4.373 11.624)">
                    <path id="Path_209" data-name="Path 209" d="M218.1,143.665c.136.114-.284,1.581-1.809,1.6a1.838,1.838,0,0,1-1.825-1.515c.145-.246.66-.08,1.773-.08A8.036,8.036,0,0,1,218.1,143.665Z" transform="translate(-214.377 -143.535)" fill="#fff"/>
                    <path id="Path_210" data-name="Path 210" d="M216.032,145.1a2.038,2.038,0,0,1-1.726-1.048c-.117-.2-.216-.461-.145-.581.118-.2.395-.184.9-.152.25.016.56.035.941.035.454,0,.818-.021,1.111-.038.459-.026.689-.04.8.052h0c.1.087.024.353-.015.463a1.925,1.925,0,0,1-1.842,1.268Zm-1.4-1.649c-.182,0-.3.022-.34.1a.889.889,0,0,0,.194.507,1.9,1.9,0,0,0,1.547.894h.019a1.771,1.771,0,0,0,1.532-.826,1.158,1.158,0,0,0,.223-.642,1.977,1.977,0,0,0-.687-.013c-.294.017-.661.038-1.12.038-.385,0-.7-.02-.95-.036C214.884,143.456,214.744,143.448,214.631,143.448Z" transform="translate(-214.137 -143.294)" fill="#d3976e"/>
                </g>
                <g id="Group_8931" data-name="Group 8931" transform="translate(5.946 8.416)">
                    <path id="Path_211" data-name="Path 211" d="M221.079,131.935a.746.746,0,0,1-.295-.893,5.428,5.428,0,0,0,.158-1.206l.151,0a5.457,5.457,0,0,1-.166,1.252.6.6,0,0,0,.24.722Z" transform="translate(-220.736 -129.835)" fill="#d88d64"/>
                </g>
                <path id="Path_212" data-name="Path 212" d="M221.838,262.855l-1.4.212c-1.783.155-2.443-1.219-4.019-1.016s-1.387.829-1.387.829c-1.044.028-.769,1.474-.769,1.474a1.581,1.581,0,0,0,.02,1.583c-.359.509.119,1.278.119,1.278a2.441,2.441,0,0,0,2.241,1.644c.037,0,.074.006.111.009s.078.006.117.007.082,0,.124,0q.087,0,.173-.007h.021c.049,0,.1-.006.147-.013a35.577,35.577,0,0,0,4.949-1.649A14.093,14.093,0,0,0,221.838,262.855Z" transform="translate(-209.699 -222.1)" fill="#ffcca9"/>
                <path id="Path_213" data-name="Path 213" d="M218.141,265.594s.9.177,1.394.211a18.635,18.635,0,0,1,1.893.287s-1.47-.123-1.9-.15A6.083,6.083,0,0,1,218.141,265.594Z" transform="translate(-212.805 -224.814)" fill="#d88d64"/>
                <path id="Path_214" data-name="Path 214" d="M215.884,270a2.691,2.691,0,0,1-.858-.536,1.231,1.231,0,0,1-.207-.546,2.237,2.237,0,0,0,.014.681Z" transform="translate(-210.266 -227.346)" fill="#d88d64"/>
                <path id="Path_215" data-name="Path 215" d="M215.389,276.715a5.761,5.761,0,0,1-.888-.484,1.366,1.366,0,0,1-.389-.564,1.635,1.635,0,0,0,.225.647Z" transform="translate(-209.745 -232.485)" fill="#d88d64"/>
                <path id="Path_216" data-name="Path 216" d="M215.808,281.961a5.741,5.741,0,0,1-.888-.484,1.584,1.584,0,0,1-.416-.606,1.8,1.8,0,0,0,.252.689Z" transform="translate(-210.045 -236.449)" fill="#d88d64"/>
                <path id="Path_217" data-name="Path 217" d="M218.3,264.044s-.16.368.129.418l.047.066-.307-.114A.474.474,0,0,1,218.3,264.044Z" transform="translate(-212.835 -223.634)" fill="#d88d64"/>
            </g>
            <g id="Group_8936" data-name="Group 8936" transform="translate(12.345 19.415)" opacity="0.1">
                <g id="Group_8933" data-name="Group 8933" transform="translate(0 2.597)">
                    <g id="Group_8932" data-name="Group 8932">
                        <path id="Path_218" data-name="Path 218" d="M189.421,180.658l.066-4.047-.339.066-.066,4.006c-1.833.314-2.2,3.569-2.263,7.72v0l-.005.232c0,.848.451,1.059,1.027,1.149a5.054,5.054,0,0,0,.634.051.345.345,0,0,0,.661-.14v-.282a.346.346,0,0,0-.346-.346.342.342,0,0,0-.336.3c-.459-.023-1.026-.122-1.209-.461a3.807,3.807,0,0,1-.059-1.51c.122-3.63.516-6.389,2.2-6.389s2.469,2.751,2.592,6.373a3.768,3.768,0,0,1-.075,1.461,1.239,1.239,0,0,1-.98.5.345.345,0,0,0-.676.132l.034.28a.346.346,0,0,0,.677.048c.66-.092,1.408-.383,1.384-1.249l0-.34,0-.016C192.259,183.955,191.431,180.7,189.421,180.658Z" transform="translate(-186.815 -176.612)" fill="#0e3368"/>
                    </g>
                </g>
                <g id="Group_8935" data-name="Group 8935" transform="translate(14.804)">
                    <g id="Group_8934" data-name="Group 8934">
                        <path id="Path_219" data-name="Path 219" d="M253.134,175.632c-.341-8.018-4.061-9.839-4.221-9.914a10.674,10.674,0,0,1,1.148,1.462,14.487,14.487,0,0,1,2.683,8.461,1.646,1.646,0,1,0,.389-.01Z" transform="translate(-248.913 -165.718)" fill="#0e3368"/>
                    </g>
                </g>
                <path id="Path_220" data-name="Path 220" d="M235.867,283.837l-.067,4.444-12.358.473h0l-.019,1.562,13.222-.56v-6.11Z" transform="translate(-214.695 -255.532)" fill="#0e3368"/>
            </g>
            <g id="Layer_12" data-name="Layer 12" transform="translate(11.876 18.298)">
                <g id="Group_8938" data-name="Group 8938" transform="translate(0 7.369)">
                    <g id="Group_8937" data-name="Group 8937">
                        <path id="Path_221" data-name="Path 221" d="M190.376,199.455c-.082-4.272-.722-7.514-2.763-7.514-2.073,0-2.693,3.348-2.759,7.719v0l-.005.232c0,.847.451,1.059,1.027,1.149a5.106,5.106,0,0,0,.634.051.345.345,0,0,0,.661-.14v-.282a.346.346,0,0,0-.346-.346.342.342,0,0,0-.336.3c-.459-.023-1.026-.122-1.209-.461a3.807,3.807,0,0,1-.059-1.51c.122-3.63.712-6.36,2.4-6.36s2.273,2.723,2.4,6.345a3.767,3.767,0,0,1-.075,1.461,1.24,1.24,0,0,1-.98.5.345.345,0,0,0-.676.132l.034.28a.346.346,0,0,0,.677.048c.66-.092,1.408-.383,1.384-1.249l0-.34Z" transform="translate(-184.85 -191.941)" fill="#383f47"/>
                    </g>
                </g>
                <g id="Group_8940" data-name="Group 8940" transform="translate(2.463 3.78)">
                    <g id="Group_8939" data-name="Group 8939">
                        <path id="Path_222" data-name="Path 222" d="M195.52,180.652h-.339v-3.7l.339-.066Z" transform="translate(-195.182 -176.887)" fill="#383f47"/>
                    </g>
                </g>
                <g id="Group_8942" data-name="Group 8942" transform="translate(14.409 0.005)">
                    <g id="Group_8941" data-name="Group 8941">
                        <path id="Path_223" data-name="Path 223" d="M249.131,171.142c-.175-4.8-1.708-7.265-2.691-8.625a10.674,10.674,0,0,0-1.148-1.462c.16.075,3.931,1.917,4.229,10.073Z" transform="translate(-245.292 -161.055)" fill="#383f47"/>
                    </g>
                </g>
                <g id="Group_8944" data-name="Group 8944" transform="translate(14.404)">
                    <g id="Group_8943" data-name="Group 8943">
                        <path id="Path_224" data-name="Path 224" d="M249.331,171.216c-.261-4.994-1.454-7.181-2.437-8.542a5.435,5.435,0,0,0-1.625-1.642c.16.075,3.937,2.07,4.234,10.226Z" transform="translate(-245.269 -161.032)" fill="#1a2026"/>
                    </g>
                </g>
                <g id="Group_8947" data-name="Group 8947" transform="translate(16.771 9.863)">
                    <g id="Group_8945" data-name="Group 8945" transform="translate(0.048 0.048)">
                        <path id="Path_225" data-name="Path 225" d="M258.706,204.259a1.652,1.652,0,1,1-1.652-1.652A1.652,1.652,0,0,1,258.706,204.259Z" transform="translate(-255.403 -202.607)" fill="#bcbcbc"/>
                    </g>
                    <g id="Group_8946" data-name="Group 8946">
                        <path id="Path_226" data-name="Path 226" d="M256.9,205.8a1.7,1.7,0,1,1,1.7-1.7A1.7,1.7,0,0,1,256.9,205.8Zm0-3.3a1.6,1.6,0,1,0,1.6,1.6A1.605,1.605,0,0,0,256.9,202.5Z" transform="translate(-255.202 -202.405)" fill="#444"/>
                    </g>
                </g>
                <g id="Group_8949" data-name="Group 8949" transform="translate(18.873 10.981)" opacity="0.3">
                    <g id="Group_8948" data-name="Group 8948">
                        <path id="Path_227" data-name="Path 227" d="M264.435,209.171l-.417-.878.294-.808.911-.39a1.691,1.691,0,0,1-.788,2.076Z" transform="translate(-264.018 -207.095)" fill="#fff"/>
                    </g>
                </g>
                <g id="Group_8951" data-name="Group 8951" transform="translate(17.727 10.903)">
                    <g id="Group_8950" data-name="Group 8950">
                        <path id="Path_228" data-name="Path 228" d="M260.7,207.546a.743.743,0,1,1-.743-.78A.762.762,0,0,1,260.7,207.546Z" transform="translate(-259.211 -206.766)" fill="#635b53"/>
                    </g>
                </g>
                <g id="Group_8953" data-name="Group 8953" transform="translate(16.755 9.853)" opacity="0.4">
                    <g id="Group_8952" data-name="Group 8952">
                        <path id="Path_229" data-name="Path 229" d="M256.587,202.362l.091,1-.556.657-.99.051a1.713,1.713,0,0,1,1.454-1.71Z" transform="translate(-255.132 -202.362)" fill="#fff"/>
                    </g>
                </g>
                <g id="Group_8956" data-name="Group 8956" transform="translate(17.763 10.855)">
                    <g id="Group_8954" data-name="Group 8954" transform="translate(0.048 0.048)">
                        <path id="Path_230" data-name="Path 230" d="M260.883,207.426a.66.66,0,1,1-.66-.66A.66.66,0,0,1,260.883,207.426Z" transform="translate(-259.563 -206.766)" fill="#d3d3d3"/>
                    </g>
                    <g id="Group_8955" data-name="Group 8955">
                        <path id="Path_231" data-name="Path 231" d="M260.069,207.981a.708.708,0,1,1,.708-.708A.709.709,0,0,1,260.069,207.981Zm0-1.32a.612.612,0,1,0,.612.612A.612.612,0,0,0,260.069,206.661Z" transform="translate(-259.361 -206.565)" fill="#a8a6a0"/>
                    </g>
                </g>
                <g id="Group_8958" data-name="Group 8958" transform="translate(18.21 11.381)">
                    <g id="Group_8957" data-name="Group 8957">
                        <path id="Path_232" data-name="Path 232" d="M261.756,209.031a.259.259,0,1,1-.26-.259A.26.26,0,0,1,261.756,209.031Z" transform="translate(-261.237 -208.772)" fill="#bababa"/>
                    </g>
                </g>
                <g id="Group_8960" data-name="Group 8960" transform="translate(18.21 11.303)">
                    <g id="Group_8959" data-name="Group 8959">
                        <circle id="Ellipse_399" data-name="Ellipse 399" cx="0.259" cy="0.259" r="0.259" fill="#fff"/>
                    </g>
                </g>
                <g id="Group_8962" data-name="Group 8962" transform="translate(1.757 15.898)">
                    <g id="Group_8961" data-name="Group 8961">
                        <rect id="Rectangle_1602" data-name="Rectangle 1602" width="0.285" height="0.668" rx="0.143" fill="#aaa9a2"/>
                    </g>
                </g>
                <g id="Group_8964" data-name="Group 8964" transform="translate(3.632 15.886)">
                    <g id="Group_8963" data-name="Group 8963" transform="translate(0 0)">
                        <rect id="Rectangle_1603" data-name="Rectangle 1603" width="0.285" height="0.668" rx="0.143" transform="matrix(0.996, -0.094, 0.094, 0.996, 0, 0.027)" fill="#aaa9a2"/>
                    </g>
                </g>
                <g id="Group_8966" data-name="Group 8966" transform="translate(17.895 10.996)" opacity="0.4">
                    <g id="Group_8965" data-name="Group 8965">
                        <path id="Path_233" data-name="Path 233" d="M260.32,207.159a.575.575,0,0,0-.407.478l.371.027.1-.1Z" transform="translate(-259.913 -207.159)" fill="#fff"/>
                    </g>
                </g>
                <g id="Group_8968" data-name="Group 8968" transform="translate(18.625 11.458)" opacity="0.4">
                    <g id="Group_8967" data-name="Group 8967">
                        <path id="Path_234" data-name="Path 234" d="M263.177,209.683a.575.575,0,0,0,.216-.589l-.357.1-.058.126Z" transform="translate(-262.978 -209.094)" fill="#fff"/>
                    </g>
                </g>
            </g>
            <g id="Layer_4" data-name="Layer 4" transform="translate(14.485)">
                <g id="Group_8970" data-name="Group 8970" transform="translate(0 3.157)">
                    <g id="Group_8969" data-name="Group 8969">
                        <path id="Path_235" data-name="Path 235" d="M196.707,105.893a38.753,38.753,0,0,1-.84-4.249c-.127-1.426-.277-3.341,1.33-3.993s1.112,1.339,1.112,1.339a4.233,4.233,0,0,0-1.525,2.994C196.647,103.146,196.707,105.893,196.707,105.893Z" transform="translate(-195.795 -97.52)" fill="#2a445d"/>
                    </g>
                </g>
                <g id="Group_8972" data-name="Group 8972" transform="translate(9.995 3.157)">
                    <g id="Group_8971" data-name="Group 8971">
                        <path id="Path_236" data-name="Path 236" d="M239.318,105.85a32.3,32.3,0,0,0,.918-4.206c.127-1.426.277-3.341-1.329-3.993s-1.113,1.339-1.113,1.339a4.233,4.233,0,0,1,1.525,2.994A34.274,34.274,0,0,1,239.318,105.85Z" transform="translate(-237.722 -97.52)" fill="#2a445d"/>
                    </g>
                </g>
                <g id="Group_8974" data-name="Group 8974" transform="translate(1.375)">
                    <g id="Group_8973" data-name="Group 8973">
                        <path id="Path_237" data-name="Path 237" d="M210.466,89.588a6.7,6.7,0,0,1-3.268-.3c-.384-.18-2.248.613-3.105.452a3.353,3.353,0,0,1-2.393-1.779c-.094-.4-.487-.974.7-1.863,1.64-1.23,3.663-.932,4-1.292a1.424,1.424,0,0,1,1.334-.514c1.758.176,1.844,1.207,2.832,1.361,1.286.2,1.72.72,1.8,1.8A1.937,1.937,0,0,1,210.466,89.588Z" transform="translate(-201.562 -84.277)" fill="#2a445d"/>
                    </g>
                </g>
                <g id="Group_8976" data-name="Group 8976" transform="translate(2.36 0.251)">
                    <g id="Group_8975" data-name="Group 8975">
                        <path id="Path_238" data-name="Path 238" d="M209.887,85.329a14.364,14.364,0,0,0-1.934,2c-1.383,1.609-2.1,1.51-2.259,1.539,0,0,1.194.206,2.456-1.454A18.323,18.323,0,0,1,209.887,85.329Z" transform="translate(-205.694 -85.329)" fill="#1f384c"/>
                    </g>
                </g>
                <g id="Group_8978" data-name="Group 8978" transform="translate(8.723 4.326)">
                    <g id="Group_8977" data-name="Group 8977">
                        <path id="Path_239" data-name="Path 239" d="M232.385,103.355s2.308.273,3.314-.933c0,0-.212,1.261-3.261.954Z" transform="translate(-232.385 -102.422)" fill="#1f384c"/>
                    </g>
                </g>
                <g id="Group_8980" data-name="Group 8980" transform="translate(1.439 2.961)">
                    <g id="Group_8979" data-name="Group 8979">
                        <path id="Path_240" data-name="Path 240" d="M205.318,99.029a3.1,3.1,0,0,1-3.488-1.823,3.094,3.094,0,0,0,2.3,2.09,3.585,3.585,0,0,0,.708.121c.128.01.207.01.207.01h.005c2.6.023,4.706-2.728,4.706-2.728A9.762,9.762,0,0,1,205.318,99.029Z" transform="translate(-201.829 -96.698)" fill="#1f384c"/>
                    </g>
                </g>
            </g>
            <g id="Layer_5" data-name="Layer 5" transform="translate(14.84 7.826)">
                <g id="Group_8983" data-name="Group 8983" transform="translate(2.778 1.326)">
                    <g id="Group_8982" data-name="Group 8982">
                        <g id="Group_8981" data-name="Group 8981" clip-path="url(#clip-path)">
                            <path id="Path_241" data-name="Path 241" d="M215.286,129.919l.9-.9v.9Z" transform="translate(-213.771 -127.506)" fill="#fff"/>
                            <path id="Path_242" data-name="Path 242" d="M208.932,124.721l-.471-.471v-1.156l.9-.9h1.156l.471.471v1.156l-.9.9Z" transform="translate(-208.573 -122.307)" fill="#fff"/>
                            <path id="Path_243" data-name="Path 243" d="M209.359,122.2l-.9.9v-.9Z" transform="translate(-208.573 -122.307)" fill="#fff"/>
                        </g>
                    </g>
                </g>
                <g id="Group_8986" data-name="Group 8986" transform="translate(6.88 1.406)">
                    <g id="Group_8985" data-name="Group 8985">
                        <g id="Group_8984" data-name="Group 8984" clip-path="url(#clip-path-2)">
                            <path id="Path_245" data-name="Path 245" d="M232.495,130.253l.9-.9v.9Z" transform="translate(-230.98 -127.84)" fill="#fff"/>
                            <path id="Path_246" data-name="Path 246" d="M226.141,125.055l-.471-.471v-1.156l.9-.9h1.156l.471.471v1.156l-.9.9Z" transform="translate(-225.782 -122.642)" fill="#fff"/>
                            <path id="Path_247" data-name="Path 247" d="M226.568,122.529l-.9.9v-.9Z" transform="translate(-225.782 -122.642)" fill="#fff"/>
                        </g>
                    </g>
                </g>
                <g id="Group_8988" data-name="Group 8988" transform="translate(7.818 0.03)">
                    <g id="Group_8987" data-name="Group 8987">
                        <path id="Path_248" data-name="Path 248" d="M231.47,118.068a1.531,1.531,0,0,0-1.116-.272.248.248,0,0,1-.273-.3h0a.247.247,0,0,1,.163-.181,1.459,1.459,0,0,1,1.554.365.246.246,0,0,1,.058.226l0,.016A.248.248,0,0,1,231.47,118.068Z" transform="translate(-230.074 -117.229)" fill="#2a445d"/>
                    </g>
                </g>
                <g id="Group_8993" data-name="Group 8993" transform="translate(3.637 2.142)">
                    <g id="Group_8990" data-name="Group 8990" transform="translate(4.104 0.03)">
                        <g id="Group_8989" data-name="Group 8989">
                            <ellipse id="Ellipse_401" data-name="Ellipse 401" cx="0.291" cy="0.371" rx="0.291" ry="0.371" fill="#210601"/>
                        </g>
                    </g>
                    <g id="Group_8992" data-name="Group 8992">
                        <g id="Group_8991" data-name="Group 8991">
                            <path id="Path_249" data-name="Path 249" d="M212.828,126.089a.381.381,0,1,0,.291.371A.338.338,0,0,0,212.828,126.089Z" transform="translate(-212.537 -126.089)" fill="#210601"/>
                        </g>
                    </g>
                </g>
                <g id="Group_8995" data-name="Group 8995" transform="translate(0 1.283)">
                    <g id="Group_8994" data-name="Group 8994">
                        <path id="Path_250" data-name="Path 250" d="M206.478,123.367a1.223,1.223,0,0,0-2.375.189h0a1.155,1.155,0,0,0-1.685-.067,1.225,1.225,0,0,0-2.372-.153,10.358,10.358,0,0,0-2.682-.794c-.04.008-.075.068-.082.1l.105.043a.182.182,0,0,1,.021-.026,18.424,18.424,0,0,1,2.6.8,1.226,1.226,0,0,0,2.265.863.349.349,0,0,0,.1-.035.332.332,0,0,0,.1-.071.389.389,0,0,0,.1-.208.592.592,0,0,0-.072-.412,1.024,1.024,0,0,1,1.519.054.618.618,0,0,0-.057.388.388.388,0,0,0,.1.208.322.322,0,0,0,.1.071.351.351,0,0,0,.1.035,1.226,1.226,0,0,0,2.265-.863,17.592,17.592,0,0,1,2.582-.8s.131-.054.131-.054C209.188,122.551,209.133,122.426,206.478,123.367Zm-5.269,1.447a1.1,1.1,0,1,1,1.1-1.1A1.1,1.1,0,0,1,201.209,124.814Zm1.226-.743a.228.228,0,0,1-.053.072.218.218,0,0,1-.03.019,1.218,1.218,0,0,0,.083-.411.252.252,0,0,1,.026.072A.52.52,0,0,1,202.435,124.071Zm1.7.1a.225.225,0,0,1-.053-.072.52.52,0,0,1-.026-.247.254.254,0,0,1,.026-.072,1.224,1.224,0,0,0,.084.411A.2.2,0,0,1,204.14,124.174Zm1.173.67a1.1,1.1,0,1,1,1.1-1.1A1.1,1.1,0,0,1,205.313,124.844Z" transform="translate(-197.281 -122.484)" fill="#302420"/>
                    </g>
                </g>
                <g id="Group_8997" data-name="Group 8997" transform="translate(2.355 0)">
                    <g id="Group_8996" data-name="Group 8996">
                        <path id="Path_251" data-name="Path 251" d="M207.549,117.942a1.53,1.53,0,0,1,1.116-.272.248.248,0,0,0,.273-.3h0a.247.247,0,0,0-.163-.181,1.459,1.459,0,0,0-1.554.365.246.246,0,0,0-.058.226l0,.016A.248.248,0,0,0,207.549,117.942Z" transform="translate(-207.158 -117.103)" fill="#2a445d"/>
                    </g>
                </g>
            </g>
            <g id="Layer_16" data-name="Layer 16" transform="translate(11.886 22.078)">
                <g id="Group_8999" data-name="Group 8999" transform="translate(0.302 3.793)">
                    <g id="Group_8998" data-name="Group 8998">
                        <path id="Path_252" data-name="Path 252" d="M186.172,200.265s-.321-6.521,1.881-7.368a1.577,1.577,0,0,1,1.32.106c1.166.615,1.456,2.847,1.546,3.861a13.759,13.759,0,0,1,.063,3.757,25.4,25.4,0,0,0-.426-5.246c-.508-2.213-1.466-2.456-2.079-2.422s-1.325.721-1.722,2.062A36.258,36.258,0,0,0,186.172,200.265Z" transform="translate(-186.155 -192.797)" fill="#1a2026"/>
                    </g>
                </g>
                <g id="Group_9001" data-name="Group 9001" transform="translate(0 11.741)">
                    <g id="Group_9000" data-name="Group 9000">
                        <path id="Path_253" data-name="Path 253" d="M184.89,226.137a1.087,1.087,0,0,0,.738.711.953.953,0,0,0,.892-.18,1.255,1.255,0,0,0,.021.469S184.942,227.309,184.89,226.137Z" transform="translate(-184.89 -226.136)" fill="#1a2026"/>
                    </g>
                </g>
                <g id="Group_9003" data-name="Group 9003" transform="translate(4.098 11.297)">
                    <g id="Group_9002" data-name="Group 9002">
                        <path id="Path_254" data-name="Path 254" d="M203.5,224.274a1.09,1.09,0,0,1-.093.5.988.988,0,0,1-.606.544c-.531.281-.718-.095-.718-.095a1.582,1.582,0,0,1,.035.461S203.615,225.635,203.5,224.274Z" transform="translate(-202.079 -224.273)" fill="#1a2026"/>
                    </g>
                </g>
                <g id="Group_9005" data-name="Group 9005" transform="translate(2.453)">
                    <g id="Group_9004" data-name="Group 9004">
                        <path id="Path_255" data-name="Path 255" d="M195.182,176.953l.339-.066-.021.173-.318.061Z" transform="translate(-195.182 -176.887)" fill="#1a2026"/>
                    </g>
                </g>
            </g>
        </g>
    </g>
</svg>
