<svg xmlns="http://www.w3.org/2000/svg" width="82.794" height="96.696" viewBox="0 0 82.794 96.696">
    <g id="Group_8846" data-name="Group 8846" transform="translate(-38.625 -50.976)">
        <path id="Path_47" data-name="Path 47" d="M121.419,139.643c0,4.433-18.534,8.029-41.4,8.029s-41.4-3.6-41.4-8.029,18.534-8.032,41.4-8.032S121.419,135.205,121.419,139.643Z" fill="#c8e3f7"/>
        <g id="Group_8845" data-name="Group 8845">
            <path id="Path_48" data-name="Path 48" d="M70.868,120.891c-.3,6.24-.354,12.672,4.155,17.412a10.456,10.456,0,0,0,2.314,1.785h24.522c1.064-2.838.066-6.693.922-9.707.888-3.125,3.472-5,4.364-7.951,2.687-8.881-7.9-12.258-8.972-20.143-.919-6.789,4.258-12.455,6.1-18.4a25.224,25.224,0,0,0-.746-16.529,5.885,5.885,0,0,0-3.382-3.389c-1.429-.535-5.454-1.535-6.908-1.114-1.038.3-2.029,1.571-3.006,2.079-4.047,2.115-8.088,2.677-10.1,7.269-2.219,5.057-.7,10.58-2.659,15.588C75.054,93.94,71.277,99.16,70.667,106,70.224,110.955,71.109,115.943,70.868,120.891Z" fill="#e65a3c"/>
            <path id="Path_49" data-name="Path 49" d="M106.992,124.211A15.908,15.908,0,0,0,98.6,117.8l-12.282-4.549H74.6L62.323,117.8a15.9,15.9,0,0,0-8.385,6.414Z" fill="#f7ae80"/>
            <path id="Path_50" data-name="Path 50" d="M96.034,140.088H109.9a128.553,128.553,0,0,0-2.909-15.877s-4.362-5.481-11.037-1.084c0,0-5.1,5.07-.545,13.777Z" fill="#f7ae80"/>
            <path id="Path_51" data-name="Path 51" d="M96.674,140.088h13.974C109.535,132.4,108.5,127,108.5,127a10.487,10.487,0,0,0-6.776-7.793c-5.737.9-5.529,10.035-5.529,10.035Z" fill="#3565a7"/>
            <g id="Group_8842" data-name="Group 8842">
                <rect id="Rectangle_1589" data-name="Rectangle 1589" width="11.722" height="15.693" transform="translate(74.601 101.734)" fill="#f7ae80"/>
            </g>
            <path id="Path_52" data-name="Path 52" d="M104.145,140.088a15.647,15.647,0,0,0-.437-3.184c-7.664-13.92-4.394-18.867-4.394-18.867l-9.161-3.369c-.935,3.955-5.2,5.738-5.2,5.738a25.275,25.275,0,0,1-13.547-5.976L62.323,117.8a15.8,15.8,0,0,0-10.794,12.936l6.185,9.355Z" fill="#fff"/>
            <g id="Group_8843" data-name="Group 8843">
                <path id="Path_53" data-name="Path 53" d="M72.049,97.844a9.619,9.619,0,0,0,2.157,3.148c4.3,4.139,10.053,7.037,16.088,7.037,15.749-6.883,10.645-37.211,10.645-37.211C98.573,56.305,86.155,56.336,86.155,56.336c-9.38-.406-17.937,4.025-19.378,13.906-.553,3.785.177,7.846.367,11.633a30.56,30.56,0,0,0,1.37,8.209C69.42,92.789,70.92,95.233,72.049,97.844Z" fill="#f7ae80"/>
                <path id="Path_54" data-name="Path 54" d="M98.519,99.48a16.429,16.429,0,0,1-8.225,8.549c-6.035,0-11.784-2.9-16.088-7.037a9.619,9.619,0,0,1-2.157-3.148c-.205-.477-.431-.942-.655-1.406C78.914,104.986,89.872,113.248,98.519,99.48Z" fill="#e7a379"/>
                <path id="Path_55" data-name="Path 55" d="M70.4,86.779s-1.241-5.166-5.211-3.031c0,0-1.794.908-.5,4.455,0,0,1.884,5.1,5.715,3.237Z" fill="#f7ae80"/>
            </g>
            <g id="Group_8844" data-name="Group 8844">
                <path id="Path_56" data-name="Path 56" d="M64.561,140.088l.257-1.01s7.2-9.763-1.445-18.834c0,0-6.389-4.115-12.012,7.707L49.8,140.088Z" fill="#f7ae80"/>
            </g>
            <path id="Path_57" data-name="Path 57" d="M100.852,73.877c1.391,4.619.778,3.984.778,3.984,3.583-9.507.1-15.92.1-15.92-7.4-16.189-25.843-9.666-25.843-9.666-16.15,4.036-11.666,25.274-11.666,25.274C65.218,86.463,70.4,89.1,70.4,89.1a14.608,14.608,0,0,1,0-9.385c.991-5.8,4.2-5.277,4.2-5.277S94,69.875,93.52,62.633A16.911,16.911,0,0,0,100.852,73.877Z" fill="#e65a3c"/>
            <path id="Path_58" data-name="Path 58" d="M78.341,140.088V127.619L70.4,114.805l-8.08,2.992-.071.021-.072.022-.165.055-.137.046c-.094.032-.2.073-.32.118l-.2.08c-.12.049-.247.1-.384.162-.087.035-.172.076-.265.117-.113.053-.232.107-.356.17-.1.049-.2.1-.317.156-.153.078-.313.168-.475.258s-.315.178-.478.279-.309.186-.467.289c-.127.08-.255.17-.383.258-.146.1-.289.2-.435.311s-.265.193-.4.3c-.024.017-.047.037-.073.054-1.87,1.076-3.964,3.26-5.961,7.459L49.8,140.088Z" fill="#376bb2"/>
            <path id="Path_59" data-name="Path 59" d="M104.547,140.088a20.567,20.567,0,0,0-1.669-6.016c-3.464-5.738.062-14.084.062-14.084a16.252,16.252,0,0,0-3.626-1.951h0l-.188-.07a.2.2,0,0,1-.031-.012L92.952,115.7l-2.88,9.35.058,15.041Z" fill="#376bb2"/>
            <path id="Path_60" data-name="Path 60" d="M49.508,137.406a9.4,9.4,0,0,0,.845,2.682H76.72a18.9,18.9,0,0,0,2.073-6.631c.689-4.775-1.532-7.838-2.087-12.369-.67-5.467,3.886-6.473,6.064-10.684,2.527-4.886,1.144-8.283-1.911-11.875C78.1,95.281,78.512,91.406,78.4,87.053c-.155-5.828,3.988-5.024,5.547-9.578,1.556-4.535-.193-14.3-3.864-17.43-3.322-2.832-9.744-5.7-12.454-2.6-2.96,3.39-7.892,10.22-7.037,18.134.674,6.254,4.316,12.244-.508,18.131-4.6,5.613-13.592,11.856-8.914,20.242,2.484,4.452,4.113,5.653,2,11.1C51.505,129.324,48.8,132.486,49.508,137.406Z" fill="#e65a3c"/>
        </g>
    </g>
</svg>
