<svg xmlns="http://www.w3.org/2000/svg" width="31.915" height="25.532" viewBox="0 0 31.915 25.532">
    <path id="Icon_awesome-photo-video" data-name="Icon awesome-photo-video" d="M30.32,0H7.979a1.6,1.6,0,0,0-1.6,1.6V6.383h7.979V3.192h9.575V19.149H30.32a1.6,1.6,0,0,0,1.6-1.6V1.6A1.6,1.6,0,0,0,30.32,0ZM11.569,5.136a.449.449,0,0,1-.449.449h-1.5a.449.449,0,0,1-.449-.449V3.64a.449.449,0,0,1,.449-.449h1.5a.449.449,0,0,1,.449.449ZM29.123,15.509a.449.449,0,0,1-.449.449h-1.5a.449.449,0,0,1-.449-.449v-1.5a.449.449,0,0,1,.449-.449h1.5a.449.449,0,0,1,.449.449Zm0-5.186a.449.449,0,0,1-.449.449h-1.5a.449.449,0,0,1-.449-.449v-1.5a.449.449,0,0,1,.449-.449h1.5a.449.449,0,0,1,.449.449Zm0-5.186a.449.449,0,0,1-.449.449h-1.5a.449.449,0,0,1-.449-.449V3.64a.449.449,0,0,1,.449-.449h1.5a.449.449,0,0,1,.449.449ZM20.745,7.979H1.6A1.6,1.6,0,0,0,0,9.575V23.936a1.6,1.6,0,0,0,1.6,1.6H20.745a1.6,1.6,0,0,0,1.6-1.6V9.575A1.6,1.6,0,0,0,20.745,7.979ZM4.787,11.17a1.6,1.6,0,1,1-1.6,1.6,1.6,1.6,0,0,1,1.6-1.6Zm14.362,11.17H3.192v-1.6l3.192-3.192,1.6,1.6,6.383-6.383,4.787,4.787Z" fill="#acaba9"/>
</svg>
