<svg xmlns="http://www.w3.org/2000/svg" width="18.992" height="23.74" viewBox="0 0 18.992 23.74">
    <path id="Icon_material-forward-10" data-name="Icon material-forward-10" d="M6,15.744a9.5,9.5,0,0,0,18.992,0H22.618A7.122,7.122,0,1,1,15.5,8.622V13.37l5.935-5.935L15.5,1.5V6.248A9.524,9.524,0,0,0,6,15.744ZM14.071,19.3h-.95V15.388l-1.187.356v-.831l2.137-.712h.119v5.1Zm5.1-2.137a2.314,2.314,0,0,1-.119.95l-.356.712s-.356.356-.593.356-.475.119-.712.119a1.505,1.505,0,0,1-.712-.119c-.237-.119-.356-.237-.593-.356s-.237-.356-.356-.712a2.614,2.614,0,0,1-.119-.95v-.831a2.314,2.314,0,0,1,.119-.95l.356-.712s.356-.356.593-.356.475-.119.712-.119a1.505,1.505,0,0,1,.712.119c.237.119.356.237.593.356s.237.356.356.712a2.614,2.614,0,0,1,.119.95Zm-.95-.95v-.593a1.2,1.2,0,0,1-.119-.356c0-.119-.119-.119-.237-.237a.593.593,0,0,0-.712,0l-.237.237a1.2,1.2,0,0,0-.119.356V18a1.2,1.2,0,0,1,.119.356c0,.119.119.119.237.237a.593.593,0,0,0,.712,0l.237-.237A1.2,1.2,0,0,0,18.226,18Z" transform="translate(-6 -1.5)" fill="#c3c6d6"/>
</svg>
