<svg xmlns="http://www.w3.org/2000/svg" width="22.531" height="25.75" viewBox="0 0 22.531 25.75">
    <path id="Icon_awesome-calendar-minus" data-name="Icon awesome-calendar-minus" d="M21.928,8.047H.6a.605.605,0,0,1-.6-.6V5.633A2.415,2.415,0,0,1,2.414,3.219H4.828V.6a.605.605,0,0,1,.6-.6H7.443a.605.605,0,0,1,.6.6V3.219h6.438V.6a.605.605,0,0,1,.6-.6H17.1a.605.605,0,0,1,.6.6V3.219h2.414a2.415,2.415,0,0,1,2.414,2.414V7.443A.605.605,0,0,1,21.928,8.047ZM.6,9.656H21.928a.605.605,0,0,1,.6.6V23.336a2.415,2.415,0,0,1-2.414,2.414H2.414A2.415,2.415,0,0,1,0,23.336V10.26A.605.605,0,0,1,.6,9.656Zm15.289,9.656a.605.605,0,0,0,.6-.6V16.7a.605.605,0,0,0-.6-.6H6.639a.605.605,0,0,0-.6.6v2.012a.605.605,0,0,0,.6.6Z" fill="#acaba9"/>
</svg>
