<svg xmlns="http://www.w3.org/2000/svg" width="92.693" height="99.421" viewBox="0 0 92.693 99.421">
    <g id="Group_8836" data-name="Group 8836" transform="translate(-155.568 -48.251)">
        <path id="Path_23" data-name="Path 23" d="M248.261,139.643c0,4.433-20.751,8.029-46.347,8.029s-46.346-3.6-46.346-8.029,20.75-8.032,46.346-8.032S248.261,135.205,248.261,139.643Z" fill="#c8e3f7"/>
        <g id="Group_8835" data-name="Group 8835">
            <g id="Group_8831" data-name="Group 8831">
                <path id="Path_24" data-name="Path 24" d="M167.27,140.088h22.707a114.46,114.46,0,0,0,3.245-14.518s.463-10.769-10.587-9.845c0,0-12.612-.242-14.715,14.427A75.169,75.169,0,0,1,167.27,140.088Z" fill="#434693"/>
            </g>
            <g id="Group_8832" data-name="Group 8832">
                <rect id="Rectangle_1587" data-name="Rectangle 1587" width="12.328" height="16.502" transform="translate(194.511 96.939)" fill="#f7ae80"/>
            </g>
            <path id="Path_25" data-name="Path 25" d="M228.573,120.578a16.7,16.7,0,0,0-8.817-6.744l-12.917-4.787H194.511L181.6,113.834a16.717,16.717,0,0,0-8.823,6.744Z" fill="#f7ae80"/>
            <path id="Path_26" data-name="Path 26" d="M225.449,140.088l-.039-1.332,5.695-11.322a16.606,16.606,0,0,0-11.349-13.6l-9.853-3.65L198.661,114l-7.506-3.707-9.555,3.543a16.606,16.606,0,0,0-11.352,13.6l4.611,12.654Z" fill="#434693"/>
            <g id="Group_8833" data-name="Group 8833">
                <path id="Path_27" data-name="Path 27" d="M212.02,140.088h24.54c-3.207-10.412-6.277-17.617-7.485-19.787,0,0-5.846-9.059-14.333-1.92,0,0-10.435,7.082-3.678,20.275C211.064,138.656,211.413,139.141,212.02,140.088Z" fill="#434693"/>
            </g>
            <g id="Group_8834" data-name="Group 8834">
                <path id="Path_28" data-name="Path 28" d="M179.928,73.488a48.989,48.989,0,0,1-.584-8.345c-.027-2.512.466-6.3,3.587-6.619,4.324-.444,5.658,7.029,5.913,10.263.352,4.463-.755,9.279-1.615,13.647-.31,1.578-.276,4.728-2.05,5.488-1.521.654-1.263.894-2.036-.246C181.273,84.926,180.327,76.668,179.928,73.488Z" fill="#764415"/>
                <path id="Path_29" data-name="Path 29" d="M182.264,94.643c1.712,6.693,4.725,8.537,4.725,8.537l4.04.791c2.326-.3,6.335-1.244,6.335-1.244,9.23-3.137,12.293-2.948,14.2-7.747.061-.146,6.416-24.941,6.416-24.941,1.18-12.894-12.312-15.574-14.351-15.91-2.015-.463-14.865-4.035-18.659,8.338A67.231,67.231,0,0,0,182.264,94.643Z" fill="#f7ae80"/>
                <path id="Path_30" data-name="Path 30" d="M208.615,97.149c-3.713,2.869-10,4.75-14.621,5.238-8.208.867-10.058-5.18-11.47-11.582.126,1.47.29,2.969.539,4.506,1.6,6.244,4.408,7.966,4.408,7.966l3.766.735c2.171-.278,5.913-1.158,5.913-1.158,8.609-2.928,11.467-2.752,13.244-7.227.007-.019.124-.461.313-1.195A8.457,8.457,0,0,1,208.615,97.149Z" fill="#e7a379"/>
                <path id="Path_31" data-name="Path 31" d="M200.629,49.879c3.839-.512,8.3-1.484,12.085-.248,5.046,1.652,5.028,7.4,7.31,11.328,2.429,4.18,3.961,7.715,3.75,12.268-.162,3.525-1.537,1.8-2.046,5.406-.566,4.016-1.334,4.326-3.241,7.685l-6.926,8.662c1.11-4.394.271-5.205,1.283-8.58a21.256,21.256,0,0,0-.946-13.632c-1.6-3.68-2.706-3.6-6.107-4.493a50.552,50.552,0,0,0-12.683-1.644c-4.149-.065-8.664-.186-12.031-2.957-3.1-2.555-4.247-8.207-3.054-12.1a6.183,6.183,0,0,1,7.247-3.125c3.273.717,6.6,1.676,9.967,1.785A32.711,32.711,0,0,0,200.629,49.879Z" fill="#764415"/>
                <path id="Path_32" data-name="Path 32" d="M211.994,83.949s2.28-4.972,5.869-2.027c0,0,1.631,1.275-.381,4.6,0,0-2.918,4.784-6.418,2.135Z" fill="#f7ae80"/>
                <path id="Path_33" data-name="Path 33" d="M212.353,72.358s-.018,8.9-1.654,13.615l1.737.345s.911-6.1,4.051-6.175Z" fill="#764415"/>
            </g>
        </g>
    </g>
</svg>
