<svg xmlns="http://www.w3.org/2000/svg" width="57.62" height="57.62" viewBox="0 0 57.62 57.62">
    <g id="Group_240" data-name="Group 240" transform="translate(-166.133 -552.023)">
        <path id="Path_16653" data-name="Path 16653" d="M25.123,0A25.123,25.123,0,1,1,0,25.123,25.123,25.123,0,0,1,25.123,0Z" transform="translate(166.133 601.625) rotate(-80.819)" fill="#563cde"/>
        <g id="Symbol_211_1" data-name="Symbol 211 – 1" transform="translate(187.023 572.231)">
            <rect id="Rectangle_1448" data-name="Rectangle 1448" width="18" height="18" transform="translate(0 0)" fill="none"/>
            <path id="Union_46" data-name="Union 46" d="M11.191,16.984a1,1,0,0,1-1-1V1a1,1,0,0,1,1-1h3.1a1,1,0,0,1,1,1V15.984a1,1,0,0,1-1,1ZM1,16.984a1,1,0,0,1-1-1V1A1,1,0,0,1,1,0H4.1a1,1,0,0,1,1,1V15.984a1,1,0,0,1-1,1Z" transform="translate(1.06)" fill="#fff"/>
        </g>
    </g>
</svg>
