<svg xmlns="http://www.w3.org/2000/svg" width="18.354" height="14.684" viewBox="0 0 18.354 14.684">
  <defs>
    <style>
      .cls-1 {
        fill: #ffa800;
      }
    </style>
  </defs>
  <path id="Icon_awesome-user-edit" data-name="Icon awesome-user-edit" class="cls-1" d="M6.424,7.342A3.671,3.671,0,1,0,2.753,3.671,3.671,3.671,0,0,0,6.424,7.342Zm2.57.918H8.515a4.992,4.992,0,0,1-4.182,0H3.855A3.856,3.856,0,0,0,0,12.114v1.193a1.377,1.377,0,0,0,1.377,1.377H9.261a1.377,1.377,0,0,1-.075-.611l.2-1.747.034-.318.227-.227,2.217-2.217a3.815,3.815,0,0,0-2.865-1.3Zm1.3,4.167-.2,1.749a.457.457,0,0,0,.5.5l1.747-.2L16.3,10.531,14.248,8.475l-3.955,3.952Zm7.861-4.715L17.067,6.625a.687.687,0,0,0-.969,0L15.014,7.709l-.118.118,2.059,2.056,1.2-1.2a.691.691,0,0,0,0-.972Z"/>
</svg>
