<svg xmlns="http://www.w3.org/2000/svg" width="13.252" height="13.252" viewBox="0 0 13.252 13.252">
    <path id="Icon_ionic-ios-paper" data-name="Icon ionic-ios-paper" d="M5.8,4.394V14.652a.447.447,0,0,1-.446.446h0a.447.447,0,0,1-.446-.446V5.414h-.51A1.018,1.018,0,0,0,3.375,6.433v9.174a1.018,1.018,0,0,0,1.019,1.019H15.642a.985.985,0,0,0,.984-.984V4.394a1.018,1.018,0,0,0-1.019-1.019l-8.856.064A.913.913,0,0,0,5.8,4.394ZM7.9,5.414h2.676a.447.447,0,0,1,.446.446h0a.447.447,0,0,1-.446.446H7.9a.447.447,0,0,1-.446-.446h0A.447.447,0,0,1,7.9,5.414Zm0,5.1h4.715a.447.447,0,0,1,.446.446h0a.447.447,0,0,1-.446.446H7.9a.447.447,0,0,1-.446-.446h0A.447.447,0,0,1,7.9,10.51Zm6.244,3.44H7.9a.447.447,0,0,1-.446-.446h0a.447.447,0,0,1,.446-.446h6.244a.447.447,0,0,1,.446.446h0A.447.447,0,0,1,14.142,13.951Zm0-5.1H7.9a.447.447,0,0,1-.446-.446h0A.447.447,0,0,1,7.9,7.962h6.244a.447.447,0,0,1,.446.446h0A.447.447,0,0,1,14.142,8.854Z" transform="translate(-3.375 -3.375)" fill="#ffa800"/>
</svg>
