<svg xmlns="http://www.w3.org/2000/svg" width="45.005" height="45.005" viewBox="0 0 45.005 45.005">
    <g id="Group_238" data-name="Group 238" transform="translate(-50.133 -557.882)">
        <path id="Path_16650" data-name="Path 16650" d="M19.623,0a19.623,19.623,0,0,1,0,39.246c-3.923,0-10.907-3.308-10.907-3.308S0,26.537,0,19.623A19.623,19.623,0,0,1,19.623,0Z" transform="translate(50.133 596.625) rotate(-80.819)" fill="#f4f4f6"/>
        <g id="Symbol_209_1" data-name="Symbol 209 – 1" transform="translate(64.023 571.231)">
            <path id="Path_189" data-name="Path 189" d="M4.169,8.338c.417,0,.584.25.25.584L3.169,10.173a4.993,4.993,0,0,0,3.5,1.5,5.043,5.043,0,0,0,5-4.336.843.843,0,0,1,1.668.167v.167a6.668,6.668,0,0,1-6.671,5.67,6.973,6.973,0,0,1-4.753-1.918L.584,12.758c-.334.334-.584.167-.584-.25V8.755a.394.394,0,0,1,.417-.417ZM9.172,5c-.417,0-.584-.25-.25-.584l1.251-1.251a4.993,4.993,0,0,0-3.5-1.5A5.043,5.043,0,0,0,1.668,6a.792.792,0,0,1-.834.667A.788.788,0,0,1,0,5.837V5.67A6.668,6.668,0,0,1,6.671,0a6.973,6.973,0,0,1,4.753,1.918L12.758.584c.334-.334.584-.167.584.25V4.586A.394.394,0,0,1,12.924,5Z" transform="translate(2 2)" fill="#c3c6d6" fill-rule="evenodd"/>
        </g>
    </g>
</svg>
