<svg xmlns="http://www.w3.org/2000/svg" width="18.797" height="23.496" viewBox="0 0 18.797 23.496">
    <path id="Icon_material-replay-10" data-name="Icon material-replay-10" d="M15.4,6.2V1.5L9.524,7.374,15.4,13.248v-4.7A7.049,7.049,0,1,1,8.35,15.6H6a9.4,9.4,0,1,0,9.4-9.4ZM14.106,19.122H13.049V15.245l-1.175.352v-.822l2.115-.7h.117Zm5.052-2.115a2.29,2.29,0,0,1-.117.94l-.352.7S18.335,19,18.1,19s-.47.117-.7.117a1.49,1.49,0,0,1-.7-.117c-.235-.117-.352-.235-.587-.352s-.235-.352-.352-.7a2.587,2.587,0,0,1-.117-.94v-.822a2.29,2.29,0,0,1,.117-.94l.352-.7s.352-.352.587-.352.47-.117.7-.117a1.49,1.49,0,0,1,.7.117c.235.117.352.235.587.352s.235.352.352.7a2.587,2.587,0,0,1,.117.94Zm-1.057-.94V15.48a1.183,1.183,0,0,1-.117-.352c0-.117-.117-.117-.235-.235a.587.587,0,0,0-.7,0l-.235.235a1.183,1.183,0,0,0-.117.352v2.35a1.183,1.183,0,0,1,.117.352c0,.117.117.117.235.235a.587.587,0,0,0,.7,0l.235-.235a1.183,1.183,0,0,0,.117-.352Z" transform="translate(-6 -1.5)" fill="#c3c6d6"/>
</svg>
