<svg xmlns="http://www.w3.org/2000/svg" width="11.476" height="12.671" viewBox="0 0 11.476 12.671">
    <path id="Icon_ionic-md-share" data-name="Icon ionic-md-share" d="M14.058,12.072a1.742,1.742,0,0,0-1.247.478L8.24,9.907A2.141,2.141,0,0,0,8.3,9.461a2.14,2.14,0,0,0-.064-.446L12.747,6.4A1.913,1.913,0,1,0,12.14,5a2.128,2.128,0,0,0,.064.446L7.7,8.06a1.924,1.924,0,0,0-1.311-.509A1.893,1.893,0,0,0,4.5,9.461a1.924,1.924,0,0,0,3.229,1.4L12.268,13.5a1.6,1.6,0,0,0-.064.414,1.854,1.854,0,1,0,1.854-1.846Z" transform="translate(-4.5 -3.094)" fill="#353333"/>
</svg>
