<svg xmlns="http://www.w3.org/2000/svg" width="74.241" height="45.212" viewBox="0 0 74.241 45.212">
    <g id="Group_9008" data-name="Group 9008" transform="translate(-30.941 -273.643)">
        <path id="Path_72" data-name="Path 72" d="M351.182,138.813c0,3.975-16.62,7.2-37.12,7.2s-37.12-3.225-37.12-7.2,16.62-7.2,37.12-7.2S351.182,134.834,351.182,138.813Z" transform="translate(-246 172.842)" fill="#c8e3f7"/>
        <path id="Icon_material-timer" data-name="Icon material-timer" d="M26.234,1.5H15.367V5.122H26.234ZM18.989,25.045h3.622V14.178H18.989ZM33.533,13.073,36.1,10.5a20.011,20.011,0,0,0-2.554-2.554L30.979,10.52a16.3,16.3,0,1,0,2.554,2.554ZM20.8,35.912A12.678,12.678,0,1,1,33.479,23.234,12.669,12.669,0,0,1,20.8,35.912Z" transform="translate(47.643 272.143)" fill="#8b80f8"/>
    </g>
</svg>
