<svg xmlns="http://www.w3.org/2000/svg" width="45.005" height="45.005" viewBox="0 0 45.005 45.005">
    <g id="Group_242" data-name="Group 242" transform="translate(-295.133 -557.882)">
        <path id="Path_16649" data-name="Path 16649" d="M19.623,0A19.623,19.623,0,1,1,0,19.623,19.623,19.623,0,0,1,19.623,0Z" transform="translate(295.133 596.625) rotate(-80.819)" fill="#f4f4f6"/>
        <g id="Icon_ionic-ios-volume-low" data-name="Icon ionic-ios-volume-low" transform="translate(301 564)">
            <path id="Path_16651" data-name="Path 16651" d="M17.515,10.215a.874.874,0,0,0-.389-.09.9.9,0,0,0-.564.2l-3.679,2.963H9.9a.906.906,0,0,0-.9.9V18.7a.906.906,0,0,0,.9.9h2.979l3.679,2.963a.916.916,0,0,0,.564.2.874.874,0,0,0,.389-.09.9.9,0,0,0,.514-.813V11.028A.89.89,0,0,0,17.515,10.215Z" transform="translate(0 0)" fill="#c3c6d6"/>
            <path id="Path_16652" data-name="Path 16652" d="M24.636,12.789a.664.664,0,0,0-.948-.006.683.683,0,0,0-.006.959,4.53,4.53,0,0,1,1.287,3.194h0a4.549,4.549,0,0,1-1.287,3.194.683.683,0,0,0,.006.959.663.663,0,0,0,.468.2.671.671,0,0,0,.48-.2,5.889,5.889,0,0,0,1.67-4.142H26.3A5.876,5.876,0,0,0,24.636,12.789Z" transform="translate(-2.861 -0.486)" fill="#c3c6d6"/>
        </g>
    </g>
</svg>
