<svg xmlns="http://www.w3.org/2000/svg" width="105.324" height="227.704" viewBox="0 0 105.324 227.704">
    <g id="Group_9043" data-name="Group 9043" transform="translate(-439.215 -189.184)">
        <path id="Path_16694" data-name="Path 16694" d="M495.515,240.034c.012-.072,1.263,1.789-1.3,12.025,0,0-4.862,13.522-4.3,18.076,0,0-1.113,7.553-1.019,5.433s-26.481-10.845-26.481-10.845,8.425-3.095,8.11-11.805a15.79,15.79,0,0,0-1.916-5.219s-2.669-6.275-2.817-7.022C465.792,240.675,486.613,232.772,495.515,240.034Z" transform="translate(10.957 22.568)" fill="#ffb26d"/>
        <path id="Path_16695" data-name="Path 16695" d="M453.905,313.235s4.2,25.265,1.327,31.037c0,0,2.809,7.926,9.3,1.882,0,0-2.216-18.485,1.879-31.721Z" transform="translate(6.938 58.593)" fill="#ffb26d"/>
        <g id="Group_9041" data-name="Group 9041" transform="translate(459.108 398.281)">
            <path id="Path_16696" data-name="Path 16696" d="M456.078,332.231s-3.132,5.894-2.725,9.672c0,0,4.485,6.868,31.283,2.279a1.717,1.717,0,0,0-1.7-2.063s-8.958-2.734-12.111-5.7c0,0-1.115-2.425-2.858-2.939a7.38,7.38,0,0,0-2.633-2.281,4.005,4.005,0,0,0-1.206,4.6s-4.376,3.824-6.893-.639C457.235,335.161,457.132,331.82,456.078,332.231Z" transform="translate(-452.447 -331.202)" fill="#303030"/>
            <path id="Path_16697" data-name="Path 16697" d="M484.914,340.749s1.134,2.2-2.013,2.7a123.41,123.41,0,0,1-27.555-.071l-2.621-2.226a3.556,3.556,0,0,0,.552-2.532l.353-.153S478.6,341.942,484.914,340.749Z" transform="translate(-452.726 -327.769)" fill="#303030"/>
        </g>
        <path id="Path_16698" data-name="Path 16698" d="M462.3,266.9s.651,33.272,1.468,39.885c0,0-11.191,12.867-9.822,28.329,0,0,.8,5.776,12.506,1.2,0,0,6.584-15.59,6.888-20.236,0,0,10.9-9.024,10.9-45.332Z" transform="translate(6.901 36.709)" fill="#069ad0"/>
        <path id="Path_16699" data-name="Path 16699" d="M483.593,305.925s-11.257,29.214-16.524,32.631c0,0-.424,7.519,8.083,5.811,0,0,10-20.588,19.921-29.771Z" transform="translate(13.155 55.14)" fill="#ffb26d"/>
        <path id="Path_16700" data-name="Path 16700" d="M488.454,196.05s3.944,6.38,2.868,8.514c0,0-.817,1.784,2.634,4.978,0,0,2.1,1.481.415,2.273,0,0-1.624.857-2.014,1.144,0,0,1.277,1.322.4,1.97a3.6,3.6,0,0,1-.421.461c-.161.125.608.733-.237,1.257,0,0-.511.829.1,3.4,0,0,.941,3.173-6.727,1.34,0,0-4.675.992-4.033,3.461l-10.658-2.242s-14-19.8-1.147-30.3C469.64,192.307,483.819,185.718,488.454,196.05Z" transform="translate(11.805 0.497)" fill="#ffb26d"/>
        <path id="Path_16701" data-name="Path 16701" d="M464.767,197.516s-11.262,3.173-6.69,18.3,8.55,14.987,8.55,14.987l5.381-4.937-1.084-4.248c-.986-2.4-2.531-9.386-3.844-12.32s-3.2-7.054-2.3-8.581A3.512,3.512,0,0,0,464.767,197.516Z" transform="translate(8.393 3.935)" fill="#231f20"/>
        <path id="Path_16702" data-name="Path 16702" d="M463.666,201.3s-.661.82-1.413-.334-.28-3.637.433-4.158,2.315-.944,2.26-.225S464.214,201.016,463.666,201.3Z" transform="translate(10.7 3.312)" fill="#72a35c"/>
        <path id="Path_16703" data-name="Path 16703" d="M466.132,215.511l4.255,25.7,22.89,1.518,1.664-20.482s-8.45-2.207-11.084-2Z" transform="translate(12.714 12.435)" fill="#ffb26d"/>
        <path id="Path_16704" data-name="Path 16704" d="M484.974,218.413l-6.786-3.236c-5,1.365-8.1,1.8-7.9,1.933,0,0-8.217.808-11.181,8.085,0,0-5.212,5.1-6.833,6.677-1.431,1.393-5.214,6.363-6.948,8.314l7.323,7.428c2.384-1.564,13.674-10.03,14.3-10.63,0,0,1.375,2.176,2.781,4.427.529.844,1.06,1.7,1.525,2.45a33.175,33.175,0,0,1,4.823-5.733c2.671-2.557,5-4.483,6.534-7.337l.425.241,2.92-1.572Z" transform="translate(2.886 12.277)" fill="#ffb26d"/>
        <path id="Path_16705" data-name="Path 16705" d="M522.277,214.472a18.113,18.113,0,0,0-.942-4.714,76.15,76.15,0,0,1-2.032-9.577c-.068-1.752-1.044-2.022-2.089-1.786a43.691,43.691,0,0,1-4.748,1.078c-1.989.269-1.279,1.686-1.684.91a1.616,1.616,0,0,0-1.954-.573,1.571,1.571,0,0,0-.2,1.64c.224.673,2.245,3.367,3.189,4.985a9.675,9.675,0,0,0,3.637,3.5c.852.315,1.33,2.111,1.33,2.111.808,8.8-1.857,25.486-1.857,25.486-6.163-2.56-13.844-3.451-16.493-4.019a55.863,55.863,0,0,1-8.769-2.918c-3.671-1.483-11.015-1.92-11.015-1.92l10.1,17.019a16.1,16.1,0,0,1,7.276.866c4.243,1.416,14.011,1.55,15.832,1.281s9.9-1.213,11.787-1.481,2.267-1.708,2.267-5.031S522.458,217.167,522.277,214.472Z" transform="translate(18.625 4.316)" fill="#ffb26d"/>
        <path id="Path_16706" data-name="Path 16706" d="M461.718,240.6l4.4,10c-.127-.477,21.6-4.748,29.879,0l-.629-2.582s9.738-5.511-.8-18.01l-6.637-9.868-1.988-.107s4.6,5.747,3.064,12.154c0,0-8.5,13.5-16.028-5.875,0,0-3.478-9.578-7.326-10.358l-3.107.789s7.9,3.857,6.988,14.937A13.344,13.344,0,0,1,461.718,240.6Z" transform="translate(10.629 12.644)" fill="#fc423a"/>
        <path id="Path_16707" data-name="Path 16707" d="M483.158,222.045s-3.906-5.343-3.32-7.331c0,0-9.229-2.825-10.146-3.014s-1.119,3.747-2.03,5.122S479.106,224.071,483.158,222.045Z" transform="translate(13.413 10.632)" fill="#ffb26d"/>
        <path id="Path_16708" data-name="Path 16708" d="M466.514,254.595c1.773-4.217,25.956,6.709,25.956,6.709.243,8.56-3.859,18.588-3.859,18.588,19.158,11.852,25.147,35.227,25.147,35.227,1.6,7.048-4.789,12.494-4.789,12.494-.958,3.523-10.537,12.814-10.537,12.814-10.538-2.563-11.177-8.008-11.177-8.008,1.917-8.65,11.177-12.815,11.177-12.815-39.274-27.55-39.913-37.8-39.913-37.8-4.47-13.454,8-27.207,8-27.207Z" transform="translate(8.66 30.438)" fill="#069ad0"/>
        <path id="Path_16709" data-name="Path 16709" d="M466.331,268.7a18.1,18.1,0,0,0,4.391,1.96,75.973,75.973,0,0,1,8.987,3.885c1.468.957,2.253.317,2.665-.673a43.743,43.743,0,0,1,1.868-4.5c.93-1.777-.635-2.019.233-1.9a1.616,1.616,0,0,0,1.6-1.262c0-.412-.542-.907-1.222-1.113s-4.044-.118-5.91-.286a9.691,9.691,0,0,0-4.962.941c-.749.514-2.49-.137-2.49-.137-7.647-4.433-19.713-16.259-19.713-16.259,5.652-3.545,10.825-9.3,12.82-11.128a55.663,55.663,0,0,1,7.454-5.462c3.333-2.136,7.939-7.874,7.939-7.874l-17.995-2.917a33.835,33.835,0,0,0-6.649,6.746c-2.749,3.529-9.371,10.53-10.2,12.172s-4.739,8.778-5.611,10.473.081,2.837,2.792,4.76S464.028,267.29,466.331,268.7Z" transform="translate(0 15.491)" fill="#ffb26d"/>
        <g id="Group_9042" data-name="Group 9042" transform="translate(472.135 390.764)">
            <path id="Path_16710" data-name="Path 16710" d="M469.19,326.1s-5.355,4.8-6.321,8.868c0,0,2.076,8.924,31.152,15.156a1.964,1.964,0,0,0-.982-2.825s-8.16-6.487-10.3-10.838c0,0-.253-2.959-1.848-4.2a8.591,8.591,0,0,0-1.858-3.432,4.238,4.238,0,0,0-2.914,4.252s-5.87,2.157-6.814-3.479C469.3,329.594,470.419,326.1,469.19,326.1Z" transform="translate(-460.962 -326.096)" fill="#414141"/>
            <path id="Path_16711" data-name="Path 16711" d="M494.632,347.275s.358,2.731-3.045,1.966a136.614,136.614,0,0,1-28.148-11.352l-1.865-3.37a3.773,3.773,0,0,0,1.49-2.388l.417-.012S487.746,345.922,494.632,347.275Z" transform="translate(-461.574 -323.251)" fill="#414141"/>
        </g>
        <circle id="Ellipse_402" data-name="Ellipse 402" cx="7.482" cy="7.482" r="7.482" transform="translate(521.036 198.833)" fill="#5e6469"/>
        <circle id="Ellipse_403" data-name="Ellipse 403" cx="5.924" cy="5.924" r="5.924" transform="translate(522.594 200.391)" fill="#171a1c"/>
        <path id="Path_16712" data-name="Path 16712" d="M503.355,201.665a2.639,2.639,0,1,1-2.64-2.638A2.64,2.64,0,0,1,503.355,201.665Z" transform="translate(27.802 4.649)" fill="#fff"/>
        <path id="Path_16713" data-name="Path 16713" d="M460.015,233.77s7.126-1.764,9.429-8.989a12.41,12.41,0,0,0,.234-2.8s4.638,11.328-7.156,15.776Z" transform="translate(9.824 15.491)" fill="#fb9f4f"/>
        <path id="Path_16714" data-name="Path 16714" d="M470.528,221.429l.985-2.737s-1.188-5.565.527-7.363c0,0,1.341-2.236,4.37,1.491l4.75-3.666s2.871-1.3,2.431-6.734c0,0-.9-4.869,7.076-4.115,0,0,2.418-5.289-4.91-7.272,0,0-16.932-7.88-22.94,8.894C462.816,199.928,460.045,211.675,470.528,221.429Z" transform="translate(10.991)" fill="#221f20"/>
        <path id="Path_16715" data-name="Path 16715" d="M462.551,252.268a20.975,20.975,0,0,1,11.892-.841s1.762.8,0,2.354H473.8l.3,1.187s-2.019,5.708-3.189,6.33-8.151-3.445-9.666-3.968Z" transform="translate(10.407 29.166)" fill="#ffb26d"/>
        <path id="Path_16716" data-name="Path 16716" d="M460.039,276.369s11.562,18.749,10.362,35.24c0,0,4.966-5.022,7.961-16.979C478.362,294.63,464.247,283.133,460.039,276.369Z" transform="translate(9.836 41.18)" fill="#414141" opacity="0.12"/>
    </g>
</svg>
