<svg xmlns="http://www.w3.org/2000/svg" width="224" height="146.155" viewBox="0 0 224 146.155">
    <g id="Group_9040" data-name="Group 9040" transform="translate(-247.368 -403.042)">
        <path id="Path_16674" data-name="Path 16674" d="M382.365,418s11.1,11.341-4.5,26.052S357.682,455.9,357.682,455.9l1.152-13.707h0c2.782-2.158,9.319-9.334,12.846-11.9s8.531-6.137,8.5-8.538A4.762,4.762,0,0,1,382.365,418Z" transform="translate(85.172 11.546)" fill="#231f20"/>
        <g id="Group_9037" data-name="Group 9037" transform="translate(320.647 457.365)">
            <path id="Path_16675" data-name="Path 16675" d="M318.353,445.392s-14.225-1.347-22.353,0c0,0-3.658,1.1-3.86.735s-9.552-2.571,3.555-6.979c0,0,19.8-3.229,25.116-2.564Z" transform="translate(-288.72 -431.537)" fill="#fb9f4f"/>
            <path id="Path_16676" data-name="Path 16676" d="M397.325,449.387s-3.813,6.913-28.908,3.3c0,0-21.336-2.2-26.153-5.141,0,0-29.6-1.1-36.822,0v-8.446s17.205-2.938,41.639-1.836c0,0,29.068-6.378,43.177-2.091C390.258,435.179,400.767,437.27,397.325,449.387Z" transform="translate(-275.809 -433.697)" fill="#fb9f4f"/>
        </g>
        <g id="Group_9038" data-name="Group 9038" transform="translate(251.712 518.898)">
            <path id="Path_16677" data-name="Path 16677" d="M292.517,474.231s.744,8.752-1.8,13.177c0,0-9.316,6.2-40.393-12.587a2.4,2.4,0,0,1,3.239-1.691s12.686,1.058,18.231-1.021c0,0,2.7-2.419,5.162-2.192a10.5,10.5,0,0,1,4.524-1.5,5.173,5.173,0,0,1-.968,6.22s3.418,6.831,8.974,2.607C289.488,477.247,291.416,473.208,292.517,474.231Z" transform="translate(-249.429 -468.42)" fill="#353535"/>
            <path id="Path_16678" data-name="Path 16678" d="M250.715,472.032s-2.6,2.132,1.065,4.3a166.824,166.824,0,0,0,34.535,13.457l4.48-1.437a4.6,4.6,0,0,1,.673-3.37l-.36-.36S257.974,476.592,250.715,472.032Z" transform="translate(-249.819 -465.631)" fill="#353535"/>
        </g>
        <path id="Path_16679" data-name="Path 16679" d="M321.461,479.742s-11.194-11.978-16.142-25.256c0,0,7.655,14.379-34.933,61.139l-5.369-4.32s14.007-54.215,23.379-64.891c0,0,5.727-15.362,16.663-15.623,0,0,12.5.26,38.274,31.765Z" transform="translate(13.626 21.425)" fill="#fb9f4f"/>
        <path id="Path_16680" data-name="Path 16680" d="M320.521,478.185s-11.194-11.978-16.142-25.256c0,0,7.655,14.379-34.933,61.139l-5.369-4.32s14.007-54.215,23.379-64.891c0,0,5.727-15.362,16.663-15.621,0,0,12.5.259,38.274,31.763Z" transform="translate(12.9 20.224)" fill="#ffb26d"/>
        <path id="Path_16681" data-name="Path 16681" d="M381.329,500.275s-32.807,36.973-67.7-5.727l-17.705-30.2A37.54,37.54,0,0,1,317.8,447.16s14.086,8.357,33.328,28.641c0,0,16.142-4.166,18.745-3.124S373,496.109,381.329,500.275Z" transform="translate(37.493 34.063)" fill="#069ad0"/>
        <path id="Path_16682" data-name="Path 16682" d="M349.112,512.3s43.221-21.09,25.256-80.714c0,0-27.907,5.813-32.525,22.344,0,0-10.957,12.284,4.405,19.835,0,0-3,10.657-8.593,10.936,0,0,2.646,27.856,10.457,28.637Z" transform="translate(69.71 22.039)" fill="#ffb26d"/>
        <path id="Path_16683" data-name="Path 16683" d="M364.792,424.975s-1.7,7.517-.521,11.715-13.539,5.16-13.539,5.16,2.343-12.19,0-16.876Z" transform="translate(79.806 16.934)" fill="#ffb26d"/>
        <path id="Path_16684" data-name="Path 16684" d="M358.153,408.8s-7.645,6.714-7.1,9.91c0,0,.353,2.64-5.391,5.414,0,0-3.31,1.09-1.439,2.786,0,0,1.767,1.754,2.16,2.282,0,0-2.182,1.21-1.3,2.4a5.051,5.051,0,0,0,.365.766c.158.227-1.079.709-.191,1.724,0,0,.333,1.278-1.483,4.37,0,0-2.479,3.743,8.2,4.4,0,0,6.6,3.417,5.293,7.079l12.224.675s27.076-20.485,14.558-39.2C384.043,411.4,368.261,397.231,358.153,408.8Z" transform="translate(74.241 0.936)" fill="#ffb26d"/>
        <path id="Path_16685" data-name="Path 16685" d="M369.638,422.539s.223,1.411,1.887.562,2.789-4.09,2.3-5.185-2.086-2.674-2.508-1.79S369.184,421.837,369.638,422.539Z" transform="translate(94.345 9.902)" fill="#72a35c"/>
        <g id="Group_9039" data-name="Group 9039" transform="translate(247.368 519.885)">
            <path id="Path_16686" data-name="Path 16686" d="M290.066,474.788s.744,8.752-1.8,13.177c0,0-9.316,6.2-40.393-12.587a2.4,2.4,0,0,1,3.239-1.69s12.686,1.058,18.231-1.021c0,0,2.7-2.419,5.162-2.192a10.5,10.5,0,0,1,4.524-1.5,5.173,5.173,0,0,1-.968,6.22s3.418,6.831,8.974,2.607C287.037,477.8,288.965,473.765,290.066,474.788Z" transform="translate(-246.978 -468.977)" fill="#414141"/>
            <path id="Path_16687" data-name="Path 16687" d="M248.264,472.589s-2.6,2.132,1.065,4.3a166.811,166.811,0,0,0,34.536,13.457l4.478-1.437a4.6,4.6,0,0,1,.673-3.37l-.36-.36S255.523,477.149,248.264,472.589Z" transform="translate(-247.368 -466.188)" fill="#414141"/>
        </g>
        <path id="Path_16688" data-name="Path 16688" d="M347.261,470.027s17.625,6.842,30.173,3.137l2.2-13.854s-15.69,3.72-22.72-2.309c0,0,2.527-20.434,15.192-16.486,0,0-4.257-5.846-19.1-3.553,0,0-15.775,12.975-16.22,14.666S333.962,468.251,347.261,470.027Z" transform="translate(68.696 25.777)" fill="#fc423a"/>
        <path id="Path_16689" data-name="Path 16689" d="M320.582,447.52s-17.565,1.058-25.878.626c0,0-3.792,1.1-4,.734s-9.9-2.57,3.686-6.977c0,0,20.928-2.788,24.772-1.8Z" transform="translate(30.721 28.449)" fill="#ffb26d"/>
        <path id="Path_16690" data-name="Path 16690" d="M400.044,452.42s-3.952,6.913-29.968,3.3c0,0-22.117-2.2-27.111-5.141,0,0-30.68-1.482-38.173-.379l-.689-7.877a231.1,231.1,0,0,1,43.856-2.027s30.133-6.376,44.76-2.089C392.718,438.212,403.611,440.3,400.044,452.42Z" transform="translate(43.804 26.01)" fill="#ffb26d"/>
        <path id="Path_16691" data-name="Path 16691" d="M358.9,439.915s7.735,3.11,4.545,19.63l2.346-.4s3.608-19.066-12.612-22.259Z" transform="translate(81.693 26.127)" fill="#fc423a"/>
        <path id="Path_16692" data-name="Path 16692" d="M347.953,450.875s16.456,2.648,20.207-6.541a30.842,30.842,0,0,1-.686,9.456S354.683,456.31,347.953,450.875Z" transform="translate(77.661 31.881)" fill="#fb9f4f"/>
        <path id="Path_16693" data-name="Path 16693" d="M368.211,447.348l-.292-4.283s3.629-6.02,2.141-9c0,0-.849-3.319-6.112-.392l-4.627-6.7s-3.145-2.965-.514-9.2c0,0,2.972-4.533-7.437-7.586,0,0-1.015-8.277,9.034-7.005,0,0,24.483-.982,25.706,21.91C386.11,425.085,383.464,442.721,368.211,447.348Z" transform="translate(80.276)" fill="#221f20"/>
    </g>
</svg>
